# xmcd CD database file
# Copyright (C) 1993-1998 Ti Kan
# 
# Track frame offsets:
#     150
#     11805
#     24880
#     35775
#     48252
#     61507
#     74645
#     87320
#     98292
#     110647
#     121815
#     133797
#     147207
#     156737
#     168292
#     179020
#     192077
#     202177
#     211952
#     223317
#     234330
# 
# Disc length: 3278 seconds
# 
# Revision: 1
# Processed by: cddbd v1.4b41PL1 Copyright (c) Steve Scherf et al.
# Submitted via: DiscPlay 4.0.4
# 
DISCID=350ccc15
DTITLE=Sons of the Pioneers - The Sons of the Pioneers, Disk 2
DYEAR=1900
DGENRE=
TTITLE0=Tiny Bubbles
TTITLE1=Beyond The Reef
TTITLE2=Stars Above Hawaii
TTITLE3=My Isle Of Golden Dreams
TTITLE4=How Great Thou Art
TTITLE5=The Old Rugged Cross
TTITLE6=Suddenly There's A Valley
TTITLE7=I Believe
TTITLE8=Lead Me Gently Home, Father
TTITLE9=The Lord's Prayer
TTITLE10=The Cattle Call
TTITLE11=The Cowboy's Lament (The Streets of Laredo)
TTITLE12=A Cowboy Has To Sing
TTITLE13=There's A Gold Mine In The Sky
TTITLE14=Vaya Con Dios
TTITLE15=The Last Round-Up
TTITLE16=Don't Fence Me In
TTITLE17=Moonlight On The Colorado
TTITLE18=That Luck Old Sun
TTITLE19=Carolina In The Morning
TTITLE20=Cowboy Camp Meeting
EXTD=
EXTT0=
EXTT1=
EXTT2=
EXTT3=
EXTT4=
EXTT5=
EXTT6=
EXTT7=
EXTT8=
EXTT9=
EXTT10=
EXTT11=
EXTT12=
EXTT13=
EXTT14=
EXTT15=
EXTT16=
EXTT17=
EXTT18=
EXTT19=
EXTT20=
PLAYORDER=
